<?xml version="1.0" encoding="utf-8"?>
<!-- Generator: Adobe Illustrator 26.5.2, SVG Export Plug-In . SVG Version: 6.00 Build 0)  -->
<svg version="1.1" id="Layer_1" xmlns="http://www.w3.org/2000/svg" xmlns:xlink="http://www.w3.org/1999/xlink" x="0px" y="0px"
	 viewBox="0 0 243 243" style="enable-background:new 0 0 243 243;" xml:space="preserve">
<style type="text/css">
	.st0{fill:#FFFFFF;}
	.st1{fill:#191919;}
</style>
<path class="st0" d="M2.3,152.8C17,282.6,261.5,278,241.9,101.9C224-62.3-26.4-15.5,2.3,152.8z"/>
<rect x="94.5" y="83.8" class="st1" width="101" height="7.9"/>
<rect x="94.5" y="103.4" class="st1" width="101" height="7.9"/>
<rect x="94.5" y="123" class="st1" width="101" height="7.9"/>
<rect x="94.5" y="142.6" transform="matrix(-1 2.749566e-11 -2.749566e-11 -1 290.0482 293.1355)" class="st1" width="101" height="7.9"/>
<rect x="94.5" y="162.2" transform="matrix(-1 2.749566e-11 -2.749566e-11 -1 290.0482 332.367)" class="st1" width="101" height="7.9"/>
<path class="st1" d="M78.3,100.4H63.6c-4.2,0-7.6-3.4-7.6-7.6V82.7c0-4.2,3.4-7.6,7.6-7.6h14.7c4.2,0,7.6,3.4,7.6,7.6v10.1
	C85.9,97,82.5,100.4,78.3,100.4z"/>
<path class="st1" d="M78.3,139.7H63.6c-4.2,0-7.6-3.4-7.6-7.6v-10.1c0-4.2,3.4-7.6,7.6-7.6h14.7c4.2,0,7.6,3.4,7.6,7.6V132
	C85.9,136.2,82.5,139.7,78.3,139.7z"/>
<path class="st1" d="M78.3,178.9H63.6c-4.2,0-7.6-3.4-7.6-7.6v-10.1c0-4.2,3.4-7.6,7.6-7.6h14.7c4.2,0,7.6,3.4,7.6,7.6v10.1
	C85.9,175.5,82.5,178.9,78.3,178.9z"/>
</svg>
