<?xml version="1.0" encoding="utf-8"?>
<!-- Generator: Adobe Illustrator 26.5.2, SVG Export Plug-In . SVG Version: 6.00 Build 0)  -->
<svg version="1.1" id="Layer_1" xmlns="http://www.w3.org/2000/svg" xmlns:xlink="http://www.w3.org/1999/xlink" x="0px" y="0px"
	 viewBox="0 0 243 243" style="enable-background:new 0 0 243 243;" xml:space="preserve">
<style type="text/css">
	.st0{fill:#FFFFFF;}
</style>
<path class="st0" d="M2.3,152.8C17,282.6,261.5,278,241.9,101.9C224-62.3-26.4-15.5,2.3,152.8z"/>
<g>
	<path d="M119.3,109.1c0,7.2-6.2,13.4-13.9,13.4H69.8c-7.7,0-13.9-6.2-13.9-13.4V82.7c0-7.2,6.2-13.4,13.9-13.4h35.5
		c7.7,0,13.9,6.2,13.9,13.4V109.1z"/>
</g>
<g>
	<rect x="133.6" y="83.8" width="61.9" height="7.9"/>
	<rect x="133.6" y="100.1" width="61.9" height="7.9"/>
</g>
<g>
	<path d="M132.1,144.8c0-7.2,6.2-13.4,13.9-13.4h35.5c7.7,0,13.9,6.2,13.9,13.4v26.4c0,7.2-6.2,13.4-13.9,13.4h-35.5
		c-7.7,0-13.9-6.2-13.9-13.4V144.8z"/>
</g>
<g>
	<rect x="55.9" y="145.9" transform="matrix(-1 4.487731e-11 -4.487731e-11 -1 173.6841 299.7781)" width="61.9" height="7.9"/>
	<rect x="55.9" y="162.2" transform="matrix(-1 4.487731e-11 -4.487731e-11 -1 173.6841 332.3671)" width="61.9" height="7.9"/>
</g>
</svg>
